<svg xmlns="http://www.w3.org/2000/svg" viewBox="0 0 200 300" fill="black">
  <!-- Hooded Head -->
  <ellipse cx="100" cy="60" rx="45" ry="50" opacity="0.9"/>
  <path d="M 55 60 Q 100 20, 145 60 Q 120 80, 100 85 Q 80 80, 55 60" fill="black"/>
  
  <!-- Hood Shadow -->
  <ellipse cx="100" cy="55" rx="30" ry="35" fill="rgba(0,0,0,0.8)"/>
  
  <!-- Cloak Body -->
  <path d="M 70 80 Q 50 150, 40 250 L 60 280 L 80 260 L 100 270 L 120 260 L 140 280 L 160 250 Q 150 150, 130 80 Q 100 90, 70 80" fill="black"/>
  
  <!-- Scythe Handle -->
  <rect x="95" y="100" width="8" height="180" transform="rotate(-15 100 150)" fill="black"/>
  
  <!-- Scythe Blade -->
  <path d="M 85 100 Q 50 90, 30 100 Q 25 80, 40 70 Q 70 65, 85 80 Z" fill="black"/>
  
  <!-- Skeletal Hand -->
  <circle cx="90" cy="140" r="8" fill="black"/>
  <rect x="86" y="140" width="3" height="15" fill="black"/>
  <rect x="89" y="140" width="3" height="15" fill="black"/>
  <rect x="92" y="140" width="3" height="15" fill="black"/>
</svg>
